<svg width="130" height="288" xmlns="http://www.w3.org/2000/svg">
 <style type="text/css">.st0{fill:url(#SVGID_1_);}
	.st1{fill:#0400CE;}</style>

 <g>
  <title>background</title>

 </g>
 <g>
  <title>Layer 1</title>
  <g id="svg_1">
   <g id="svg_2">
    <path id="svg_3" d="m100.88,259.59c3.18,-43.86 4.34,-149.75 -66.8,-225.89c-9.04,-9.67 -18.6,-18.18 -28.46,-25.66" class="st0"/>
    <path id="svg_4" d="m100.38,259.55c-13.5,-58.95 -35.23,-118.95 -78.15,-161.95c-1.38,-1.46 -3.72,-3.56 -5.19,-4.95c-2.52,-2.55 -5.6,-4.71 -8.98,-6.19c-3.35,-1.43 -6.52,-3.51 -6.57,-7.56c-0.12,-2.21 0.53,-5.19 1.18,-7.63c0.05,-0.14 -0.04,-0.15 0.41,-0.64l0.42,-0.44c3.37,-3.37 8.17,-7.74 11.67,-11.07c2.64,-2.51 6.98,-6.52 9.51,-9.05c0.57,-0.56 1.88,-1.86 2.38,-2.45c0.41,-0.48 0.31,-0.5 0.38,-0.68c0.7,-2.28 1.3,-4.63 1.38,-6.88c0.41,-5.64 -3.59,-7.69 -7.1,-10.9c-2.09,-1.94 -3.27,-4.85 -4.97,-7.28c-3.26,-4.98 -6.98,-9.66 -11.44,-13.45l0.6,-0.8c4.86,3.29 10.18,6.04 15.66,8.82c2.67,1.46 5.78,2.51 7.92,4.62c2.22,2.03 3.69,4.78 6.32,6.4c2.63,1.63 6.61,2 12.22,1.17c0.2,-0.05 0.22,0.07 0.75,-0.27l1.01,-0.7c6.5,-5.02 13.81,-11.11 20.27,-16.22c1.68,-1.32 3.2,-2.51 4.9,-3.63c0.57,-0.35 0.6,-0.23 0.78,-0.23c3.32,0.22 6.86,1.04 9.65,2.43c7.45,3.36 8.93,11.59 11.28,18.65c1.09,3.61 2.82,6.75 4.14,10.13c1.16,2.82 3.02,7.14 4.02,9.98c16.84,43.49 21.02,93.54 14.86,138.66c-3.36,25.16 -9.53,49.34 -18.31,72.19c-0.01,-0.01 -1,-0.08 -1,-0.08l0,0z" class="st1"/>
   </g>
   <g id="svg_5">
    <g id="svg_6">
     <path id="svg_7" d="m37.81,112.97c21.4,-2.98 42.44,4.15 63.36,7.44c5.97,0.94 11.99,1.6 18.04,1.71c1.93,0.03 1.93,-2.97 0,-3c-21.73,-0.37 -42.47,-8.07 -64.07,-9.59c-6.06,-0.43 -12.11,-0.29 -18.12,0.55c-1.91,0.26 -1.1,3.15 0.79,2.89l0,0z" class="st1"/>
    </g>
   </g>
   <g id="svg_8">
    <g id="svg_9">
     <path id="svg_10" d="m50.09,129.55c18.77,-0.6 37.55,-0.82 56.33,-0.65c5.38,0.05 10.75,0.13 16.13,0.25c1.93,0.04 1.93,-2.96 0,-3c-18.78,-0.39 -37.56,-0.4 -56.34,-0.02c-5.38,0.11 -10.75,0.25 -16.13,0.43c-1.91,0.06 -1.92,3.06 0.01,2.99l0,0z" class="st1"/>
    </g>
   </g>
  </g>
 </g>
</svg>